<svg xmlns="http://www.w3.org/2000/svg" xmlns:xlink="http://www.w3.org/1999/xlink" width="42" height="42" viewBox="0 0 42 42" fill="none"><rect  x="0" y="0" width="42" height="42" rx="17.5"    fill="url(#linear_fill_0_714_3)" ></rect><g mask="url(#mask-0_714)"><path   fill="rgba(255, 255, 255, 0.1)"  d="M17.5 1.75L24.5 1.75C33.1985 1.75 40.25 8.80152 40.25 17.5L40.25 24.5C40.25 33.1985 33.1985 40.25 24.5 40.25L17.5 40.25C8.80152 40.25 1.75 33.1985 1.75 24.5L1.75 17.5C1.75 8.80152 8.80152 1.75 17.5 1.75ZM17.5 3.5C9.76801 3.5 3.5 9.76801 3.5 17.5L3.5 24.5C3.5 32.232 9.76801 38.5 17.5 38.5L24.5 38.5C32.232 38.5 38.5 32.232 38.5 24.5L38.5 17.5C38.5 9.76801 32.232 3.5 24.5 3.5L17.5 3.5Z"></path></g><g mask="url(#mask-0_714)"><path d="M26.9907 -84.5237C26.9312 -84.8445 26.7424 -85.1583 26.4325 -85.4519C26.0401 -85.8121 25.48 -86.1357 24.7845 -86.404C24.0925 -86.6932 23.2668 -86.9209 22.3564 -87.0733C21.457 -87.2133 20.499 -87.2785 19.5359 -87.2653C18.0767 -87.257 16.6528 -87.0654 15.4497 -86.7156C14.7776 -86.521 14.1853 -86.282 13.6964 -86.0082C13.3165 -86.0439 12.9269 -86.0599 12.5366 -86.0557C11.342 -86.0508 10.1966 -85.8472 9.35439 -85.49C8.38739 -85.0815 7.92007 -84.5119 8.0874 -83.9456C7.50957 -83.7947 6.99743 -83.6036 6.57354 -83.3806C5.70925 -82.9393 5.25508 -82.3836 5.29549 -81.8169C5.29743 -81.1627 5.95257 -80.5413 7.10328 -80.1022C8.23842 -79.6597 9.75439 -79.4263 11.315 -79.4539L23.2682 -79.5626C25.0036 -79.5753 26.6628 -79.8757 27.8796 -80.3975C28.4979 -80.6529 28.9897 -80.9565 29.3266 -81.2907C29.6505 -81.6259 29.8101 -81.9842 29.796 -82.3443C29.8049 -82.8594 29.4485 -83.3626 28.7717 -83.7904C28.2968 -84.0806 27.6923 -84.3295 26.9907 -84.5237ZM11.3278 38.6523C11.3659 41.0682 9.43835 43.0576 7.02241 43.0958C4.60646 43.134 2.61702 41.2064 2.57886 38.7904C2.5407 36.3745 4.46828 34.3851 6.88422 34.3469C9.30017 34.3087 11.2896 36.2363 11.3278 38.6523ZM38.884 42.0007C39.1937 41.3883 39.3635 40.6938 39.3519 39.96C39.3138 37.544 37.3243 35.6164 34.9084 35.6546C33.4047 35.6784 32.0901 36.458 31.321 37.626C30.3483 36.9592 29.0228 36.5594 27.5677 36.5823C24.6233 36.6288 22.2636 38.3892 22.2971 40.5142C22.3091 41.2726 22.6244 41.9751 23.1588 42.5627C22.6423 43.2057 22.3515 43.953 22.364 44.7465C22.4009 47.084 25.0565 48.9375 28.2953 48.8863C29.6906 48.8643 30.9666 48.4924 31.9641 47.8892C32.4886 47.9912 33.0426 48.0416 33.6147 48.0326C36.8536 47.9814 39.4493 46.0451 39.4124 43.7076C39.4027 43.0972 39.2145 42.5198 38.884 42.0007Z" fill-rule="evenodd"  fill="url(#linear_fill_0_716)" ></path></g><path d="M17.2454 26.8773C17.2454 26.8773 18.6863 30.6058 23.3997 31.5C23.3997 31.5005 23.9136 26.4797 17.2454 26.8773Z" fill-rule="evenodd"  fill="url(#linear_fill_0_726)" ></path><path d="M26.3803 27.5728C26.3803 27.5728 24.1821 28.9898 24.3527 31.5C24.3527 31.5 27.138 31.4006 28.847 30.3325L26.3803 27.5728Z" fill-rule="evenodd"  fill="url(#linear_fill_0_727)" ></path><path d="M33.7074 24.7698L28.1447 24.7698L28.1447 25.9967L25.4604 25.9967L25.4604 27.1419L27.2768 27.1419L29.897 29.9062C29.897 29.9062 32.2599 29.6279 33.7074 24.7698Z" fill-rule="evenodd"  fill="url(#linear_fill_0_728)" ></path><path   fill-rule="evenodd"  fill="url(#linear_fill_0_729_0)"  d="M31.3866 17.5818L27.1375 21.6087L28.065 22.7766L26.5262 22.6527L24.9022 24.2643C24.6923 24.4725 24.6903 24.8111 24.8977 25.0218L24.8977 25.0218C25.108 25.2355 25.4527 25.2355 25.663 25.0216L26.6819 23.9854L34.0485 23.9854C34.0489 23.9854 34.8305 20.5648 31.3866 17.5818Z"></path><path   fill-rule="evenodd"  fill="url(#linear_fill_0_730_0)"  d="M24.3281 14.9732C24.3281 14.9732 28.2723 14.5053 30.5193 16.8592L24.0616 23.6201C23.8524 23.839 23.5039 23.8427 23.2903 23.628L23.2903 23.628C23.081 23.4178 23.0811 23.0781 23.2904 22.8679L25.6337 20.515L24.3281 20.515L24.3281 14.9732Z"></path><path   fill-rule="evenodd"  fill="url(#linear_fill_0_731_0)"  d="M11.5583 11.4933L31.8924 11.4933C32.1667 11.4933 32.389 11.271 32.389 10.9967L32.389 10.9967C32.389 10.7224 32.1667 10.5 31.8924 10.5L11.5582 10.5C9.52717 10.5 7.875 12.1811 7.875 14.2481C7.875 16.3141 9.52703 17.9954 11.5582 17.9954L13.6597 17.9954C15.3999 19.2348 18.3787 20.3888 23.4739 20.4786L23.4739 14.8613L11.2614 14.8613C11.2614 14.8613 11.4346 15.8518 12.5111 17.002L11.5581 17.002C10.0659 17.002 8.85155 15.7662 8.85155 14.2481C8.85112 12.729 10.0659 11.4933 11.5581 11.4933L11.5583 11.4933ZM16.859 15.6386C17.3174 15.6386 17.6889 16.0172 17.6889 16.4839C17.6892 16.9507 17.3177 17.3294 16.859 17.3299C16.6386 17.3299 16.4272 17.2408 16.2714 17.0822C16.1156 16.9235 16.0282 16.7084 16.0283 16.4841C16.0283 16.0172 16.3998 15.6387 16.859 15.6386Z"></path><defs><linearGradient id="linear_fill_0_714_3" x1="23.85852" y1="1.9765199999999998" x2="23.85852" y2="42" gradientUnits="userSpaceOnUse"><stop offset="0" stop-color="#94EAFF"  /><stop offset="1" stop-color="#357BFC"  /></linearGradient><mask id="mask-0_714" style="mask-type:alpha" maskUnits="userSpaceOnUse"><rect  x="0" y="0" width="42" height="42" rx="17.5"    fill="url(#linear_fill_0_714_3)" ></rect></mask><linearGradient id="linear_fill_0_716" x1="20.600921630859375" y1="16.29803466796875" x2="19.094482421875" y2="-79.08172607421875" gradientUnits="userSpaceOnUse"><stop offset="0" stop-color="#FFFFFF"  /><stop offset="1" stop-color="#FFFFFF" stop-opacity="0.38" /></linearGradient><linearGradient id="linear_fill_0_726" x1="17.505706787109375" y1="27.11932373046875" x2="22.84820556640625" y2="30.80718994140625" gradientUnits="userSpaceOnUse"><stop offset="0" stop-color="#FFFFFF"  /><stop offset="1" stop-color="#FFFFFF" stop-opacity="0.32" /></linearGradient><linearGradient id="linear_fill_0_727" x1="24.8638916015625" y1="30.92938232421875" x2="27.659637451171875" y2="28.9046630859375" gradientUnits="userSpaceOnUse"><stop offset="0" stop-color="#FFFFFF"  /><stop offset="1" stop-color="#FFFFFF" stop-opacity="0.45" /></linearGradient><linearGradient id="linear_fill_0_728" x1="30.31610107421875" y1="24.769775390625" x2="28.920135498046875" y2="27.96429443359375" gradientUnits="userSpaceOnUse"><stop offset="0" stop-color="#FFFFFF" stop-opacity="0.52" /><stop offset="1" stop-color="#FFFFFF"  /></linearGradient><linearGradient id="linear_fill_0_729_0" x1="28.284088134765625" y1="19.825927734375" x2="31.08160400390625" y2="24.036376953125" gradientUnits="userSpaceOnUse"><stop offset="0" stop-color="#FFFFFF" stop-opacity="0.48" /><stop offset="1" stop-color="#FFFFFF"  /></linearGradient><linearGradient id="linear_fill_0_730_0" x1="24.3138427734375" y1="17.32000732421875" x2="28.570220947265625" y2="19.8602294921875" gradientUnits="userSpaceOnUse"><stop offset="0" stop-color="#FFFFFF" stop-opacity="0.48" /><stop offset="1" stop-color="#FFFFFF"  /></linearGradient><linearGradient id="linear_fill_0_731_0" x1="17.4837646484375" y1="10.5" x2="23.532623291015625" y2="17.75115966796875" gradientUnits="userSpaceOnUse"><stop offset="0" stop-color="#FFFFFF" stop-opacity="0.43" /><stop offset="1" stop-color="#FFFFFF"  /></linearGradient></defs></svg>