<svg xmlns="http://www.w3.org/2000/svg" xmlns:xlink="http://www.w3.org/1999/xlink" width="42" height="42" viewBox="0 0 42 42" fill="none"><rect  x="0" y="0" width="42" height="42" rx="17.5"    fill="url(#linear_fill_0_124_0)" ></rect><g mask="url(#mask-0_124)"><path   fill="rgba(255, 255, 255, 0.1)"  d="M17.5 1.75L24.5 1.75C33.1985 1.75 40.25 8.80152 40.25 17.5L40.25 24.5C40.25 33.1985 33.1985 40.25 24.5 40.25L17.5 40.25C8.80152 40.25 1.75 33.1985 1.75 24.5L1.75 17.5C1.75 8.80152 8.80152 1.75 17.5 1.75ZM17.5 3.5C9.76801 3.5 3.5 9.76801 3.5 17.5L3.5 24.5C3.5 32.232 9.76801 38.5 17.5 38.5L24.5 38.5C32.232 38.5 38.5 32.232 38.5 24.5L38.5 17.5C38.5 9.76801 32.232 3.5 24.5 3.5L17.5 3.5Z"></path></g><g mask="url(#mask-0_124)"><path d="M11.3278 38.6523C11.3659 41.0682 9.43834 43.0577 7.0224 43.0958C4.60646 43.134 2.61701 41.2064 2.57886 38.7905C2.5407 36.3745 4.46828 34.3851 6.88422 34.3469C9.30017 34.3088 11.2896 36.2363 11.3278 38.6523ZM38.884 42.0007C39.1937 41.3883 39.3635 40.6938 39.3519 39.96C39.3138 37.5441 37.3243 35.6165 34.9084 35.6546C33.4046 35.6784 32.0901 36.4581 31.321 37.626C30.3483 36.9592 29.0227 36.5594 27.5677 36.5824C24.6233 36.6289 22.2636 38.3892 22.2971 40.5142C22.3091 41.2727 22.6244 41.9751 23.1588 42.5627C22.6423 43.2057 22.3514 43.953 22.364 44.7466C22.4009 47.0841 25.0565 48.9375 28.2953 48.8863C29.6906 48.8643 30.9666 48.4924 31.9641 47.8893C32.4886 47.9913 33.0426 48.0417 33.6147 48.0326C36.8536 47.9815 39.4493 46.0451 39.4124 43.7076C39.4027 43.0972 39.2145 42.5198 38.884 42.0007ZM26.9906 90.7808C26.9311 90.13 26.7423 89.4936 26.4323 88.8981C26.0399 88.1673 25.4798 87.511 24.7843 86.967C24.0923 86.3802 23.2666 85.9185 22.3563 85.6093C21.4568 85.3254 20.4988 85.1932 19.5358 85.2201C18.0766 85.237 16.6527 85.6256 15.4496 86.3354C14.7775 86.7302 14.1853 87.2149 13.6965 87.7703C13.3165 87.6979 12.9269 87.6655 12.5366 87.6741C11.3421 87.6839 10.1967 88.097 9.35455 88.8216C8.38759 89.6502 7.92033 90.8056 8.08769 91.9543C7.50988 92.2604 6.99776 92.6481 6.5739 93.1004C5.70965 93.9957 5.25553 95.1229 5.29598 96.2724C5.29797 97.5993 5.95313 98.8597 7.10386 99.7503C8.23901 100.648 9.75497 101.121 11.3155 101.065L23.2685 100.844C25.0039 100.818 26.663 100.209 27.8798 99.1503C28.4981 98.6322 28.9899 98.0163 29.3267 97.3384C29.6506 96.6585 29.8102 95.9317 29.796 95.2014C29.8048 94.1565 29.4485 93.1359 28.7717 92.2681C28.2968 91.6796 27.6922 91.1747 26.9906 90.7808Z" fill-rule="evenodd"  fill="url(#linear_fill_0_126)" ></path></g><path d="M27.607 14.5079C26.6141 13.5987 22.372 9.72034 17.9242 10.876C12.3591 12.3235 11.2011 20.4175 10.6604 24.1906C10.3182 26.5928 10.5264 27.9566 11.2657 29.0332C12.7969 31.2607 16.0102 31.3971 17.3165 31.4545C23.1735 31.7057 31.4423 28.0834 31.8418 22.3771C32.105 18.6231 28.8511 15.6468 27.607 14.5079Z"   fill="url(#linear_fill_0_135)" ></path><path d="M17.4193 14.6683C17.4193 15.6705 18.233 16.4842 19.2353 16.4842C20.2375 16.4842 21.0512 15.6705 21.0512 14.6683C21.0512 13.666 20.2375 12.8523 19.2353 12.8523C18.233 12.8523 17.4193 13.666 17.4193 14.6683Z"   fill="#FF5629" ></path><path d="M21.4867 18.7332C21.4867 19.382 21.8328 19.9815 22.3947 20.3059C22.9565 20.6303 23.6488 20.6303 24.2106 20.3059C24.7725 19.9815 25.1186 19.382 25.1186 18.7332C25.1186 17.7309 24.3049 16.9172 23.3027 16.9172C22.3004 16.9172 21.4867 17.7309 21.4867 18.7332Z"   fill="#FF5629" ></path><path d="M14.6392 20.8721C14.6392 21.8744 15.4529 22.6881 16.4551 22.6881C17.4574 22.6881 18.2711 21.8744 18.2711 20.8721C18.2711 19.8699 17.4574 19.0562 16.4551 19.0562C15.4529 19.0562 14.6392 19.8699 14.6392 20.8721Z"   fill="#FF5629" ></path><path d="M19.3453 25.5807C19.3453 26.2295 19.6915 26.829 20.2533 27.1534C20.8152 27.4778 21.5074 27.4778 22.0693 27.1534C22.6311 26.829 22.9773 26.2295 22.9773 25.5807C22.9773 24.5785 22.1636 23.7648 21.1613 23.7648C20.159 23.7648 19.3453 24.5785 19.3453 25.5807Z"   fill="#FF5629" ></path><path d="M13.3544 26.8632C13.3544 27.8655 14.1681 28.6792 15.1703 28.6792C16.1726 28.6792 16.9863 27.8655 16.9863 26.8632C16.9863 25.8609 16.1726 25.0472 15.1703 25.0472C14.1681 25.0472 13.3544 25.8609 13.3544 26.8632Z"   fill="#FF5629" ></path><path d="M15.6038 27.6132C15.1301 28.0869 14.1276 28.7042 13.8931 28.4697C13.6562 28.2328 14.2759 27.2303 14.7496 26.759C14.9004 26.6083 15.0487 26.4886 15.2401 26.4886C15.5536 26.4886 15.8766 26.8116 15.8766 27.1251C15.8742 27.3141 15.7545 27.4624 15.6038 27.6132Z"   fill="url(#linear_fill_0_141)" ></path><path d="M17.2742 20.9314C16.8005 21.4051 15.798 22.0224 15.5635 21.7879C15.3266 21.5511 15.9463 20.5486 16.4201 20.0772C16.5708 19.9265 16.7191 19.8069 16.9105 19.8069C17.224 19.8069 17.547 20.1299 17.547 20.4433C17.5446 20.6323 17.4249 20.7807 17.2742 20.9314Z"   fill="url(#linear_fill_0_142)" ></path><path d="M21.7288 25.9426C21.2551 26.4164 20.2526 27.0336 20.0181 26.7992C19.7812 26.5623 20.4009 25.5598 20.8746 25.0885C21.0254 24.9377 21.1737 24.8181 21.3651 24.8181C21.6786 24.8181 22.0016 25.1411 22.0016 25.4545C21.9992 25.6436 21.8795 25.7919 21.7288 25.9426Z"   fill="url(#linear_fill_0_143)" ></path><path d="M25.5518 22.7981C25.5518 23.8004 26.3655 24.6141 27.3677 24.6141C28.37 24.6141 29.1837 23.8004 29.1837 22.7981C29.1837 22.1494 28.8376 21.5499 28.2757 21.2255C27.7138 20.9011 27.0216 20.9011 26.4597 21.2255C25.8979 21.5499 25.5518 22.1494 25.5518 22.7981Z"   fill="#FF5629" ></path><path d="M28.4106 23.1586C27.9368 23.6323 26.9343 24.2496 26.6999 24.0151C26.463 23.7782 27.0827 22.7758 27.5564 22.3044C27.7071 22.1537 27.8555 22.0341 28.0469 22.0341C28.3603 22.0341 28.6833 22.3571 28.6833 22.6705C28.6809 22.8595 28.5613 23.0078 28.4106 23.1586Z"   fill="url(#linear_fill_0_145)" ></path><path d="M23.956 19.2609C23.4822 19.7346 22.4797 20.3519 22.2453 20.1174C22.0084 19.8805 22.6281 18.8781 23.1018 18.4067C23.2526 18.256 23.4009 18.1364 23.5923 18.1364C23.9057 18.1364 24.2287 18.4594 24.2287 18.7728C24.2263 18.9618 24.1067 19.1101 23.956 19.2609Z"   fill="url(#linear_fill_0_146)" ></path><path d="M20.0583 14.8064C19.5845 15.2801 18.582 15.8974 18.3476 15.6629C18.1107 15.4261 18.7304 14.4236 19.2041 13.9522C19.3548 13.8015 19.5032 13.6819 19.6946 13.6819C20.008 13.6819 20.331 14.0049 20.331 14.3183C20.3286 14.5073 20.209 14.6557 20.0583 14.8064Z"   fill="url(#linear_fill_0_147)" ></path><path   fill-rule="evenodd"  fill="url(#linear_fill_0_148_0)"  d="M20.0129 7.04302C21.9844 9.63657 23.9535 12.2325 25.925 14.8261C26.1571 14.2997 26.6308 13.0245 26.2958 11.4836C25.7767 9.09345 23.7262 7.98808 23.3243 7.77036C21.9461 7.02627 20.6302 7.00952 20.0129 7.04302ZM34.9905 22.0205C32.3969 20.0491 29.801 18.08 27.2074 16.1085C27.7338 15.8764 29.009 15.4027 30.5498 15.7376C32.94 16.2568 34.0478 18.3073 34.2631 18.7092C35.0072 20.0873 35.024 21.4033 34.9905 22.0205Z"></path><path d="M25.676 16.3572C26.3639 17.0451 27.5931 17.0871 28.9007 16.4673C30.2083 15.8476 31.3956 14.6602 32.0154 13.3526C32.6351 12.0449 32.5931 10.8157 31.9052 10.1279C31.2173 9.43999 29.9881 9.39803 28.6805 10.0178C27.3729 10.6376 26.1856 11.8249 25.5658 13.1326C24.9461 14.4402 24.9881 15.6694 25.676 16.3572Z"   fill="url(#linear_fill_0_149)" ></path><defs><linearGradient id="linear_fill_0_124_0" x1="23.85852" y1="1.9765199999999998" x2="23.85852" y2="42" gradientUnits="userSpaceOnUse"><stop offset="0" stop-color="#FFA36E"  /><stop offset="1" stop-color="#FF3D12"  /></linearGradient><mask id="mask-0_124" style="mask-type:alpha" maskUnits="userSpaceOnUse"><rect  x="0" y="0" width="42" height="42" rx="17.5"    fill="url(#linear_fill_0_124_0)" ></rect></mask><linearGradient id="linear_fill_0_126" x1="21.683990478515625" y1="84.87283325195312" x2="20.945770263671875" y2="38.1322021484375" gradientUnits="userSpaceOnUse"><stop offset="0" stop-color="#FFFFFF"  /><stop offset="1" stop-color="#FFFFFF" stop-opacity="0.38" /></linearGradient><linearGradient id="linear_fill_0_135" x1="14.514450073242188" y1="27.666748046875" x2="26.099151611328125" y2="15.33685302734375" gradientUnits="userSpaceOnUse"><stop offset="0" stop-color="#FFFFFF"  /><stop offset="1" stop-color="#FFB094"  /></linearGradient><linearGradient id="linear_fill_0_141" x1="13.8409423828125" y1="28.52105712890625" x2="15.876556396484375" y2="26.4886474609375" gradientUnits="userSpaceOnUse"><stop offset="0" stop-color="#FFFFFF"  /><stop offset="1" stop-color="#FFFFFF" stop-opacity="0" /></linearGradient><linearGradient id="linear_fill_0_142" x1="15.5113525390625" y1="21.83929443359375" x2="17.546966552734375" y2="19.806884765625" gradientUnits="userSpaceOnUse"><stop offset="0" stop-color="#FFFFFF"  /><stop offset="1" stop-color="#FFFFFF" stop-opacity="0" /></linearGradient><linearGradient id="linear_fill_0_143" x1="19.9659423828125" y1="26.85052490234375" x2="22.001556396484375" y2="24.818115234375" gradientUnits="userSpaceOnUse"><stop offset="0" stop-color="#FFFFFF"  /><stop offset="1" stop-color="#FFFFFF" stop-opacity="0" /></linearGradient><linearGradient id="linear_fill_0_145" x1="26.647705078125" y1="24.06646728515625" x2="28.683319091796875" y2="22.0340576171875" gradientUnits="userSpaceOnUse"><stop offset="0" stop-color="#FFFFFF"  /><stop offset="1" stop-color="#FFFFFF" stop-opacity="0" /></linearGradient><linearGradient id="linear_fill_0_146" x1="22.193115234375" y1="20.16876220703125" x2="24.228729248046875" y2="18.1363525390625" gradientUnits="userSpaceOnUse"><stop offset="0" stop-color="#FFFFFF"  /><stop offset="1" stop-color="#FFFFFF" stop-opacity="0" /></linearGradient><linearGradient id="linear_fill_0_147" x1="18.29541015625" y1="15.71429443359375" x2="20.331024169921875" y2="13.681884765625" gradientUnits="userSpaceOnUse"><stop offset="0" stop-color="#FFFFFF"  /><stop offset="1" stop-color="#FFFFFF" stop-opacity="0" /></linearGradient><linearGradient id="linear_fill_0_148_0" x1="25.230056762695312" y1="15.55682373046875" x2="28.27001953125" y2="12.87127685546875" gradientUnits="userSpaceOnUse"><stop offset="0" stop-color="#FFFFFF"  /><stop offset="1" stop-color="#FFD1BF"  /></linearGradient><linearGradient id="linear_fill_0_149" x1="26.050704956054688" y1="16.904296875" x2="31.216690063476562" y2="10.05047607421875" gradientUnits="userSpaceOnUse"><stop offset="0" stop-color="#FFFFFF"  /><stop offset="1" stop-color="#FFBA9E"  /></linearGradient></defs></svg>