<svg xmlns="http://www.w3.org/2000/svg" xmlns:xlink="http://www.w3.org/1999/xlink" width="42" height="42" viewBox="0 0 42 42" fill="none"><rect  x="0" y="0" width="42" height="42" rx="17.5"    fill="url(#linear_fill_0_734_3)" ></rect><g mask="url(#mask-0_734)"><path   fill="rgba(255, 255, 255, 0.1)"  d="M17.5 1.75L24.5 1.75C33.1985 1.75 40.25 8.80152 40.25 17.5L40.25 24.5C40.25 33.1985 33.1985 40.25 24.5 40.25L17.5 40.25C8.80152 40.25 1.75 33.1985 1.75 24.5L1.75 17.5C1.75 8.80152 8.80152 1.75 17.5 1.75ZM17.5 3.5C9.76801 3.5 3.5 9.76801 3.5 17.5L3.5 24.5C3.5 32.232 9.76801 38.5 17.5 38.5L24.5 38.5C32.232 38.5 38.5 32.232 38.5 24.5L38.5 17.5C38.5 9.76801 32.232 3.5 24.5 3.5L17.5 3.5Z"></path></g><g mask="url(#mask-0_734)"><path d="M26.9906 -84.5237C26.9311 -84.8445 26.7423 -85.1583 26.4324 -85.4519C26.04 -85.8121 25.4799 -86.1357 24.7844 -86.404C24.0924 -86.6932 23.2667 -86.9209 22.3563 -87.0733C21.4569 -87.2133 20.4989 -87.2785 19.5358 -87.2653C18.0766 -87.257 16.6527 -87.0654 15.4496 -86.7156C14.7775 -86.521 14.1852 -86.282 13.6963 -86.0082C13.3164 -86.0439 12.9268 -86.0599 12.5365 -86.0557C11.342 -86.0508 10.1965 -85.8472 9.3543 -85.49C8.38729 -85.0815 7.91997 -84.5119 8.0873 -83.9456C7.50947 -83.7947 6.99733 -83.6036 6.57344 -83.3806C5.70915 -82.9393 5.25498 -82.3836 5.29539 -81.8169C5.29733 -81.1627 5.95247 -80.5413 7.10318 -80.1022C8.23833 -79.6597 9.75429 -79.4263 11.3149 -79.4539L23.2681 -79.5626C25.0035 -79.5753 26.6627 -79.8757 27.8795 -80.3975C28.4978 -80.6529 28.9897 -80.9565 29.3265 -81.2907C29.6504 -81.6259 29.8101 -81.9842 29.7959 -82.3443C29.8048 -82.8594 29.4484 -83.3626 28.7717 -83.7904C28.2967 -84.0806 27.6922 -84.3295 26.9906 -84.5237ZM11.3278 38.6523C11.3659 41.0682 9.43834 43.0576 7.0224 43.0958C4.60646 43.134 2.61702 41.2064 2.57886 38.7904C2.5407 36.3745 4.46828 34.3851 6.88422 34.3469C9.30016 34.3087 11.2896 36.2363 11.3278 38.6523ZM38.8839 42.0008C39.1937 41.3884 39.3635 40.6938 39.3519 39.96C39.3138 37.544 37.3243 35.6164 34.9084 35.6546C33.4046 35.6784 32.0901 36.4581 31.321 37.626C30.3482 36.9592 29.0227 36.5594 27.5676 36.5823C24.6232 36.6289 22.2635 38.3892 22.297 40.5142C22.309 41.2726 22.6243 41.9751 23.1587 42.5627C22.6422 43.2057 22.3514 43.953 22.3639 44.7465C22.4008 47.084 25.0564 48.9375 28.2952 48.8863C29.6905 48.8643 30.9665 48.4924 31.964 47.8893C32.4885 47.9912 33.0425 48.0416 33.6146 48.0326C36.8535 47.9814 39.4492 46.0451 39.4123 43.7076C39.4026 43.0972 39.2144 42.5199 38.8839 42.0008Z" fill-rule="evenodd"  fill="url(#linear_fill_0_736)" ></path></g><rect  transform="matrix(0.6623420119285583, 0.7492019534111023, -0.7481126189231873, 0.6635722517967224, 15.59375, 23.2926025390625)" x="0" y="0" width="1.816502332687378" height="10.31762409210205" rx="0.908251166343689"    fill="url(#linear_fill_0_746_0)" ></rect><path d="M22.4291 8.75C17.2591 8.75 13.0144 12.6864 12.5309 17.7207C12.8539 16.3866 13.4753 15.1447 14.3798 14.1138C16.2717 11.9557 18.9289 10.6635 21.6727 10.5738C24.0421 10.4991 26.254 11.3398 27.8665 12.9483C30.6031 15.6798 30.5721 20.3003 27.8008 23.2483C26.7083 24.4096 25.0528 25.099 23.2648 25.1319C21.5324 25.1732 19.9241 24.5836 18.8495 23.5276C17.8214 22.5194 17.2298 21.1004 17.2215 19.6348C17.2155 18.2003 17.7558 16.8638 18.7432 15.8766C19.5907 15.0382 20.734 14.5681 21.9252 14.5682L21.9407 14.5682C23.1431 14.5699 24.2943 15.0558 25.1352 15.9166C26.5549 17.3554 26.528 19.703 25.0785 21.1489C23.8805 22.3442 21.943 22.3442 20.7449 21.1489C20.2593 20.6656 19.9871 20.0077 19.9891 19.3221C19.9891 18.6296 20.256 17.9826 20.7449 17.4953C21.0088 17.2346 21.4327 17.2346 21.6965 17.4953C21.9604 17.7572 21.9604 18.1829 21.6965 18.4442C21.4638 18.6769 21.333 18.9927 21.333 19.3221C21.333 19.6514 21.4638 19.9672 21.6965 20.1999C22.3698 20.8686 23.4554 20.8686 24.1287 20.1999C25.0421 19.2868 25.0642 17.7572 24.1782 16.8554C23.587 16.2542 22.7803 15.9146 21.9377 15.9125L21.9264 15.9125C21.0921 15.9117 20.2909 16.2397 19.696 16.8256C18.9641 17.5563 18.5641 18.5531 18.5677 19.6318C18.5731 20.7363 19.0196 21.8096 19.7921 22.566C20.61 23.3715 21.8613 23.8289 23.2368 23.7919C24.6672 23.7626 25.9746 23.2286 26.8188 22.3298C29.0987 19.9039 29.1423 16.1205 26.9149 13.9003C25.5663 12.5519 23.7186 11.8493 21.715 11.9162C19.3456 11.9958 17.04 13.117 15.3935 14.9988C13.7613 16.8596 13.2097 19.4225 13.8861 22.0249C14.0902 22.8154 15.1935 24.8401 15.1935 24.8401L16.2179 26.0934C17.591 27.4981 19.5993 28.6211 22.4285 28.6211C27.9208 28.6205 32.375 24.1704 32.375 18.6846C32.375 13.1989 27.9214 8.75 22.4291 8.75Z"   fill="url(#linear_fill_0_747)" ></path><defs><linearGradient id="linear_fill_0_734_3" x1="23.85852" y1="1.9765199999999998" x2="23.85852" y2="42" gradientUnits="userSpaceOnUse"><stop offset="0" stop-color="#FFDA85"  /><stop offset="1" stop-color="#FF9C33"  /></linearGradient><mask id="mask-0_734" style="mask-type:alpha" maskUnits="userSpaceOnUse"><rect  x="0" y="0" width="42" height="42" rx="17.5"    fill="url(#linear_fill_0_734_3)" ></rect></mask><linearGradient id="linear_fill_0_736" x1="20.600921630859375" y1="16.29803466796875" x2="19.094482421875" y2="-79.08172607421875" gradientUnits="userSpaceOnUse"><stop offset="0" stop-color="#FFFFFF"  /><stop offset="1" stop-color="#FFFFFF" stop-opacity="0.38" /></linearGradient><linearGradient id="linear_fill_0_746_0" x1="0.9522105227947235" y1="8.976642488851548" x2="1.378452795159817" y2="-0.38783948962211606" gradientUnits="userSpaceOnUse"><stop offset="0" stop-color="#FFFFFF"  /><stop offset="1" stop-color="#FFEDD6" stop-opacity="0.25" /></linearGradient><linearGradient id="linear_fill_0_747" x1="17.720916748046875" y1="22.84136962890625" x2="29.65692138671875" y2="12.68963623046875" gradientUnits="userSpaceOnUse"><stop offset="0" stop-color="#FFFFFF"  /><stop offset="1" stop-color="#FFDBB0"  /></linearGradient></defs></svg>