<svg xmlns="http://www.w3.org/2000/svg" xmlns:xlink="http://www.w3.org/1999/xlink" width="42" height="42" viewBox="0 0 42 42" fill="none"><rect  x="0" y="0" width="42" height="42" rx="17.5"    fill="url(#linear_fill_0_754_3)" ></rect><g mask="url(#mask-0_754)"><path   fill="rgba(255, 255, 255, 0.1)"  d="M17.5 1.75L24.5 1.75C33.1985 1.75 40.25 8.80152 40.25 17.5L40.25 24.5C40.25 33.1985 33.1985 40.25 24.5 40.25L17.5 40.25C8.80152 40.25 1.75 33.1985 1.75 24.5L1.75 17.5C1.75 8.80152 8.80152 1.75 17.5 1.75ZM17.5 3.5C9.76801 3.5 3.5 9.76801 3.5 17.5L3.5 24.5C3.5 32.232 9.76801 38.5 17.5 38.5L24.5 38.5C32.232 38.5 38.5 32.232 38.5 24.5L38.5 17.5C38.5 9.76801 32.232 3.5 24.5 3.5L17.5 3.5Z"></path></g><g mask="url(#mask-0_754)"><path d="M26.9906 -84.5236C26.9311 -84.8444 26.7423 -85.1582 26.4324 -85.4518C26.04 -85.812 25.4799 -86.1356 24.7844 -86.4039C24.0924 -86.6931 23.2667 -86.9208 22.3563 -87.0732C21.4569 -87.2132 20.4989 -87.2784 19.5358 -87.2652C18.0766 -87.2569 16.6527 -87.0653 15.4496 -86.7155C14.7775 -86.5209 14.1852 -86.2819 13.6963 -86.0081C13.3164 -86.0438 12.9268 -86.0598 12.5365 -86.0556C11.342 -86.0507 10.1965 -85.8471 9.3543 -85.4899C8.38729 -85.0814 7.91998 -84.5118 8.0873 -83.9455C7.50947 -83.7946 6.99733 -83.6035 6.57345 -83.3805C5.70915 -82.9392 5.25498 -82.3835 5.29539 -81.8168C5.29733 -81.1626 5.95247 -80.5412 7.10318 -80.1021C8.23833 -79.6596 9.7543 -79.4262 11.3149 -79.4538L23.2681 -79.5625C25.0035 -79.5752 26.6627 -79.8756 27.8795 -80.3974C28.4978 -80.6528 28.9897 -80.9564 29.3265 -81.2906C29.6504 -81.6258 29.8101 -81.9841 29.7959 -82.3442C29.8048 -82.8593 29.4484 -83.3625 28.7717 -83.7903C28.2967 -84.0805 27.6922 -84.3294 26.9906 -84.5236ZM11.3278 38.6523C11.3659 41.0682 9.43834 43.0576 7.0224 43.0958C4.60646 43.134 2.61702 41.2064 2.57886 38.7904C2.5407 36.3745 4.46828 34.3851 6.88422 34.3469C9.30016 34.3087 11.2896 36.2363 11.3278 38.6523ZM38.8839 42.0009C39.1937 41.3884 39.3635 40.6939 39.3519 39.96C39.3138 37.544 37.3243 35.6164 34.9084 35.6546C33.4046 35.6784 32.09 36.4581 31.3209 37.6261C30.3482 36.9593 29.0227 36.5595 27.5676 36.5824C24.6232 36.629 22.2635 38.3893 22.297 40.5143C22.309 41.2728 22.6243 41.9752 23.1587 42.5628C22.6422 43.2058 22.3514 43.9531 22.3639 44.7466C22.4008 47.0841 25.0564 48.9376 28.2952 48.8864C29.6905 48.8644 30.9665 48.4925 31.964 47.8894C32.4885 47.9913 33.0425 48.0417 33.6146 48.0327C36.8535 47.9816 39.4492 46.0452 39.4123 43.7077C39.4026 43.0973 39.2144 42.5199 38.8839 42.0009Z" fill-rule="evenodd"  fill="url(#linear_fill_0_756)" ></path></g><path   fill-rule="evenodd"  fill="url(#linear_fill_0_765_0)"  d="M14.688 27.9981C13.5727 27.9981 12.6693 28.9777 12.6693 30.1859C12.6693 31.3942 13.5727 32.375 14.688 32.375C15.8024 32.375 16.706 31.3941 16.706 30.1859C16.706 28.9777 15.8025 27.9981 14.688 27.9981ZM25.9295 27.9981C24.8144 27.9981 23.911 28.9777 23.911 30.1859C23.911 31.3942 24.8144 32.375 25.9295 32.375C27.0441 32.375 27.9475 31.3941 27.9475 30.1859C27.9475 28.9777 27.0442 27.9981 25.9295 27.9981ZM32.4119 14.2229C31.63 14.2229 30.9984 14.8026 30.7938 15.58C27.4664 16.9054 27.5262 20.6976 27.5262 20.6976L10.9867 20.6976C11.2137 25.2073 15.2467 28.802 20.2019 28.802C25.1338 28.802 29.148 25.2418 29.4113 20.7643L29.427 20.7648C29.3722 18.6927 30.7857 17.6738 31.2225 17.4082C31.5311 17.7325 31.948 17.9363 32.412 17.9363C33.359 17.9363 34.125 17.1055 34.125 16.0801C34.1249 15.0542 33.3589 14.2229 32.4119 14.2229Z"></path><path d="M17.6499 9.01284C17.3007 8.58188 16.9184 8.67854 16.7558 9.32009C16.5766 10.0307 15.994 10.2369 15.4636 9.77529C14.9302 9.31468 14.521 9.54128 14.5514 10.2785C14.5833 11.0149 14.0859 11.4051 13.4499 11.1474C12.8125 10.885 12.4872 11.2375 12.7272 11.9285C12.9671 12.6183 12.6073 13.1557 11.9277 13.1221C11.2485 13.0899 11.039 13.5343 11.4639 14.1109C11.8903 14.6868 11.6994 15.3178 11.0433 15.5125C10.3869 15.7085 10.3147 16.2015 10.8843 16.6081C11.4509 17.0118 11.4509 17.6784 10.8843 18.083C10.3567 18.4605 10.403 18.9016 10.9321 19.121L20.9188 19.121L17.6499 9.01284Z" fill-rule="evenodd"  fill="url(#linear_fill_0_766)" ></path><defs><linearGradient id="linear_fill_0_754_3" x1="23.85852" y1="1.9765199999999998" x2="23.85852" y2="42" gradientUnits="userSpaceOnUse"><stop offset="0" stop-color="#63F28E"  /><stop offset="1" stop-color="#1BAB23"  /></linearGradient><mask id="mask-0_754" style="mask-type:alpha" maskUnits="userSpaceOnUse"><rect  x="0" y="0" width="42" height="42" rx="17.5"    fill="url(#linear_fill_0_754_3)" ></rect></mask><linearGradient id="linear_fill_0_756" x1="20.600921630859375" y1="16.29803466796875" x2="19.094482421875" y2="-79.08172607421875" gradientUnits="userSpaceOnUse"><stop offset="0" stop-color="#FFFFFF"  /><stop offset="1" stop-color="#FFFFFF" stop-opacity="0.38" /></linearGradient><linearGradient id="linear_fill_0_765_0" x1="23.45361328125" y1="27.2613525390625" x2="20.876007080078125" y2="17.7440185546875" gradientUnits="userSpaceOnUse"><stop offset="0" stop-color="#FFFFFF"  /><stop offset="1" stop-color="#FFFFFF" stop-opacity="0.47" /></linearGradient><linearGradient id="linear_fill_0_766" x1="10.5" y1="13.93548583984375" x2="16.021331787109375" y2="16.35943603515625" gradientUnits="userSpaceOnUse"><stop offset="0" stop-color="#FFFFFF" stop-opacity="0.56" /><stop offset="1" stop-color="#FFFFFF"  /></linearGradient></defs></svg>