<svg xmlns="http://www.w3.org/2000/svg" xmlns:xlink="http://www.w3.org/1999/xlink" width="42" height="42" viewBox="0 0 42 42" fill="none"><rect  x="0" y="0" width="42" height="42" rx="17.5"    fill="url(#linear_fill_0_697_3)" ></rect><g mask="url(#mask-0_697)"><path   fill="rgba(255, 255, 255, 0.1)"  d="M17.5 1.75L24.5 1.75C33.1985 1.75 40.25 8.80152 40.25 17.5L40.25 24.5C40.25 33.1985 33.1985 40.25 24.5 40.25L17.5 40.25C8.80152 40.25 1.75 33.1985 1.75 24.5L1.75 17.5C1.75 8.80152 8.80152 1.75 17.5 1.75ZM17.5 3.5C9.76801 3.5 3.5 9.76801 3.5 17.5L3.5 24.5C3.5 32.232 9.76801 38.5 17.5 38.5L24.5 38.5C32.232 38.5 38.5 32.232 38.5 24.5L38.5 17.5C38.5 9.76801 32.232 3.5 24.5 3.5L17.5 3.5Z"></path></g><g mask="url(#mask-0_697)"><path d="M26.9907 -84.5236C26.9312 -84.8444 26.7424 -85.1582 26.4325 -85.4517C26.0401 -85.812 25.48 -86.1356 24.7845 -86.4038C24.0925 -86.6931 23.2668 -86.9208 22.3564 -87.0732C21.457 -87.2132 20.499 -87.2784 19.5359 -87.2652C18.0767 -87.2569 16.6528 -87.0653 15.4497 -86.7155C14.7776 -86.5208 14.1853 -86.2819 13.6964 -86.008C13.3165 -86.0438 12.9269 -86.0597 12.5366 -86.0555C11.342 -86.0507 10.1966 -85.8471 9.35439 -85.4899C8.38739 -85.0814 7.92007 -84.5118 8.0874 -83.9455C7.50957 -83.7946 6.99743 -83.6035 6.57354 -83.3805C5.70925 -82.9392 5.25508 -82.3835 5.29549 -81.8167C5.29743 -81.1626 5.95257 -80.5412 7.10328 -80.1021C8.23842 -79.6595 9.75439 -79.4262 11.315 -79.4538L23.2682 -79.5625C25.0036 -79.5752 26.6628 -79.8756 27.8796 -80.3974C28.4979 -80.6528 28.9897 -80.9564 29.3266 -81.2906C29.6505 -81.6258 29.8102 -81.9841 29.796 -82.3441C29.8049 -82.8593 29.4485 -83.3625 28.7717 -83.7903C28.2968 -84.0804 27.6923 -84.3293 26.9907 -84.5236ZM11.3278 38.6523C11.3659 41.0682 9.43835 43.0577 7.0224 43.0958C4.60646 43.134 2.61702 41.2064 2.57886 38.7905C2.5407 36.3745 4.46828 34.3851 6.88422 34.3469C9.30017 34.3088 11.2896 36.2363 11.3278 38.6523ZM38.8839 42.0008C39.1937 41.3884 39.3635 40.6939 39.3519 39.96C39.3138 37.5441 37.3243 35.6165 34.9084 35.6546C33.4047 35.6784 32.0901 36.4581 31.321 37.626C30.3483 36.9592 29.0227 36.5594 27.5677 36.5824C24.6233 36.6289 22.2636 38.3892 22.2971 40.5142C22.3091 41.2727 22.6244 41.9751 23.1588 42.5627C22.6424 43.2058 22.3515 43.9531 22.364 44.7467C22.4009 47.0842 25.0565 48.9376 28.2953 48.8864C29.6907 48.8644 30.9667 48.4924 31.9642 47.8893C32.4886 47.9913 33.0425 48.0417 33.6146 48.0326C36.8535 47.9815 39.4492 46.0451 39.4123 43.7076C39.4026 43.0973 39.2144 42.5199 38.8839 42.0008Z" fill-rule="evenodd"  fill="url(#linear_fill_0_699)" ></path></g><path d="M20.368 19.4175L21.5967 19.4175L21.6235 15.6504L21.8639 15.6504C21.9529 15.6504 22.0419 15.646 22.131 15.6371C22.22 15.6282 22.3358 15.6237 22.4782 15.6237C22.6029 15.6237 22.7364 15.6682 22.8789 15.7573L23.3063 15.971C23.4488 16.0601 23.5868 16.1358 23.7203 16.1981C23.8539 16.2605 23.9741 16.2827 24.0809 16.2649C24.1878 16.2649 24.3035 16.167 24.4282 15.971C24.5528 15.7751 24.6819 15.5347 24.8155 15.2497C24.9491 14.9647 25.0737 14.6664 25.1895 14.3547C25.3052 14.043 25.4165 13.7714 25.5234 13.5398C25.6124 13.3083 25.7014 13.0322 25.7905 12.7116C25.8795 12.391 25.9507 12.0793 26.0042 11.7765C26.0754 11.4381 26.1288 11.0819 26.1644 10.7079L27.1261 10.8682C27.3932 10.9216 27.6692 10.975 27.9541 11.0285C28.239 11.0819 28.4795 11.1264 28.6753 11.1621C28.8534 11.2155 29.0137 11.26 29.1561 11.2956C29.2986 11.3313 29.4322 11.3892 29.5568 11.4693C29.6815 11.5495 29.8106 11.6519 29.9441 11.7765C30.0777 11.9012 30.2335 12.0704 30.4116 12.2842C30.5897 12.4979 30.8123 12.814 31.0794 13.2326C31.3465 13.6511 31.6181 14.092 31.8941 14.5551C32.1701 15.0181 32.4239 15.4545 32.6554 15.8642C32.8869 16.2738 33.0471 16.5766 33.1362 16.7725C33.2608 17.0219 33.2831 17.1822 33.203 17.2534C33.1228 17.3247 33.0382 17.3959 32.9492 17.4671C32.8424 17.5384 32.6643 17.6586 32.415 17.8278C32.1657 17.997 31.8896 18.1796 31.5869 18.3755C31.2842 18.5714 30.9814 18.754 30.6787 18.9232C30.376 19.0924 30.1267 19.2126 29.9308 19.2839C29.7349 19.3551 29.6058 19.3774 29.5435 19.3507C29.4811 19.3239 29.4233 19.2661 29.3698 19.177C29.3342 19.1236 29.263 19.0212 29.1561 18.8698C29.0493 18.7184 28.9335 18.5581 28.8089 18.3889C28.6842 18.2197 28.5685 18.0594 28.4616 17.908C28.3548 17.7566 28.2836 17.6631 28.2479 17.6274C28.1767 17.5384 28.0877 17.5339 27.9808 17.6141C27.874 17.6942 27.8206 17.8768 27.8206 18.1618C27.8206 18.3043 27.8161 18.5492 27.8072 18.8965C27.7983 19.2438 27.7938 19.6757 27.7938 20.1922L27.7938 21.8754L27.7938 23.8257C27.7938 25.6602 27.7716 27.1296 27.7271 28.2339C27.6826 29.3382 27.6425 30.202 27.6069 30.8254C27.5534 31.5378 27.5 32.0543 27.4466 32.3749L14.5182 32.3749C14.4647 31.8584 14.4113 31.2885 14.3579 30.6651C14.3223 30.1308 14.2822 29.4985 14.2377 28.7682C14.1932 28.038 14.1798 27.2454 14.1976 26.3904L14.1976 24.2798C14.1976 23.5496 14.1932 22.855 14.1843 22.196C14.1754 21.537 14.1664 20.9536 14.1575 20.446C14.1486 19.9384 14.1442 19.5599 14.1442 19.3106L14.1442 18.1083C14.1442 17.8056 14.0641 17.6364 13.9038 17.6007C13.8147 17.5829 13.7302 17.6096 13.65 17.6809C13.5699 17.7521 13.4853 17.8501 13.3963 17.9748C13.3072 18.0994 13.2226 18.233 13.1425 18.3755C13.0624 18.518 12.9867 18.6427 12.9154 18.7495C12.773 18.9455 12.6617 19.0879 12.5816 19.177C12.5014 19.2661 12.4346 19.3195 12.3812 19.3373C12.3278 19.3551 12.2833 19.3551 12.2477 19.3373L12.034 19.2572C11.8025 19.1859 11.5309 19.0657 11.2193 18.8965C10.9076 18.7273 10.6049 18.5492 10.3111 18.3622C10.0172 18.1751 9.75902 18.0015 9.53642 17.8412C9.31383 17.6809 9.16691 17.574 9.09568 17.5206C8.95322 17.4315 8.85082 17.3603 8.7885 17.3069C8.72617 17.2534 8.73952 17.0842 8.82856 16.7992C8.88199 16.6568 9.00219 16.4074 9.18917 16.0512C9.37615 15.695 9.59875 15.3076 9.85696 14.889C10.1152 14.4705 10.3778 14.0519 10.645 13.6333C10.9121 13.2148 11.1525 12.8541 11.3662 12.5513C11.6689 12.106 11.9672 11.7854 12.261 11.5895C12.5548 11.3936 12.9065 11.2511 13.3161 11.1621C13.512 11.1264 13.7569 11.0864 14.0507 11.0418C14.3445 10.9973 14.6161 10.9483 14.8654 10.8949C15.1681 10.8237 15.4798 10.7613 15.8003 10.7079C15.8715 11.0819 15.9428 11.4381 16.014 11.7765C16.0852 12.0793 16.152 12.3866 16.2143 12.6983C16.2767 13.01 16.3434 13.2638 16.4147 13.4597C16.4681 13.6556 16.5571 13.9005 16.6818 14.1944C16.8064 14.4883 16.9356 14.7777 17.0691 15.0627C17.2027 15.3476 17.3362 15.6015 17.4698 15.8241C17.6033 16.0467 17.7146 16.1848 17.8037 16.2382C17.9818 16.3272 18.1866 16.2827 18.4181 16.1046C18.6496 15.9265 18.9167 15.7929 19.2194 15.7039C19.3619 15.6682 19.5043 15.646 19.6468 15.6371C19.7893 15.6282 19.9139 15.6237 20.0208 15.6237C20.1454 15.6415 20.2612 15.6593 20.368 15.6771L20.368 19.4175Z" fill-rule="evenodd"  fill="url(#linear_fill_0_709)" ></path><path d="M17.136 8.75763C17.3496 8.72201 17.5144 8.81107 17.6301 9.0248C17.7459 9.23853 17.875 9.47007 18.0174 9.71943C18.0709 9.8441 18.2267 10.0801 18.4849 10.4274C18.7431 10.7747 19.0191 11.1443 19.313 11.5361C19.6068 11.928 19.8828 12.2931 20.141 12.6315C20.3992 12.9699 20.555 13.1926 20.6085 13.2994C20.7509 13.531 20.8311 13.7135 20.8489 13.8471C20.8667 13.9807 20.7598 14.0386 20.5283 14.0208C20.4215 14.003 20.2835 14.0163 20.1143 14.0608C19.9451 14.1054 19.776 14.1633 19.6068 14.2345C19.4376 14.3057 19.2773 14.3904 19.126 14.4883C18.9746 14.5863 18.8633 14.6709 18.7921 14.7421C18.703 14.849 18.6185 14.898 18.5383 14.8891C18.4582 14.8802 18.3825 14.8312 18.3113 14.7421C18.24 14.6531 18.1733 14.5417 18.1109 14.4082C18.0486 14.2746 18.0085 14.1365 17.9907 13.9941C17.9551 13.8159 17.8928 13.5577 17.8037 13.2193C17.7147 12.8809 17.6168 12.5202 17.5099 12.1373C17.4031 11.7543 17.3051 11.3758 17.2161 11.0018C17.1271 10.6278 17.0558 10.3161 17.0024 10.0667C16.9134 9.62147 16.8822 9.30087 16.9089 9.10495C16.9356 8.90903 17.0113 8.79325 17.136 8.75763Z" fill-rule="evenodd"  fill="url(#linear_fill_0_710)" ></path><path d="M24.6704 8.75763C24.4567 8.72201 24.292 8.81107 24.1763 9.0248C24.0605 9.23853 23.9314 9.47007 23.789 9.71943C23.7355 9.8441 23.5797 10.0801 23.3215 10.4274C23.0633 10.7747 22.7873 11.1443 22.4934 11.5361C22.1996 11.928 21.9236 12.2931 21.6654 12.6315C21.4072 12.9699 21.2513 13.1926 21.1979 13.2994C21.0555 13.531 20.9753 13.7135 20.9575 13.8471C20.9397 13.9807 21.0466 14.0386 21.2781 14.0208C21.3849 14.003 21.5229 14.0163 21.6921 14.0608C21.8613 14.1054 22.0304 14.1633 22.1996 14.2345C22.3688 14.3057 22.5291 14.3904 22.6804 14.4883C22.8318 14.5863 22.9431 14.6709 23.0143 14.7421C23.1034 14.849 23.1879 14.898 23.2681 14.8891C23.3482 14.8802 23.4239 14.8312 23.4951 14.7421C23.5664 14.6531 23.6331 14.5417 23.6955 14.4082C23.7578 14.2746 23.7979 14.1365 23.8157 13.9941C23.8513 13.8159 23.9136 13.5577 24.0027 13.2193C24.0917 12.8809 24.1896 12.5202 24.2965 12.1373C24.4033 11.7543 24.5013 11.3758 24.5903 11.0018C24.6793 10.6278 24.7506 10.3161 24.804 10.0667C24.893 9.62147 24.9242 9.30087 24.8975 9.10495C24.8708 8.90903 24.7951 8.79325 24.6704 8.75763Z" fill-rule="evenodd"  fill="url(#linear_fill_0_711)" ></path><defs><linearGradient id="linear_fill_0_697_3" x1="23.85852" y1="1.9765199999999998" x2="23.85852" y2="42" gradientUnits="userSpaceOnUse"><stop offset="0" stop-color="#FF6BDF"  /><stop offset="1" stop-color="#C756F0"  /></linearGradient><mask id="mask-0_697" style="mask-type:alpha" maskUnits="userSpaceOnUse"><rect  x="0" y="0" width="42" height="42" rx="17.5"    fill="url(#linear_fill_0_697_3)" ></rect></mask><linearGradient id="linear_fill_0_699" x1="20.60089111328125" y1="16.298095703125" x2="19.094482421875" y2="-79.08160400390625" gradientUnits="userSpaceOnUse"><stop offset="0" stop-color="#FFFFFF"  /><stop offset="1" stop-color="#FFFFFF" stop-opacity="0.38" /></linearGradient><linearGradient id="linear_fill_0_709" x1="20.62591552734375" y1="25.7855224609375" x2="20.62591552734375" y2="10.7078857421875" gradientUnits="userSpaceOnUse"><stop offset="0" stop-color="#FFFFFF"  /><stop offset="0.9027277249941021" stop-color="#FFBFFA"  /><stop offset="1" stop-color="#FFB8FA"  /></linearGradient><linearGradient id="linear_fill_0_710" x1="16.899658203125" y1="8.75" x2="18.537841796875" y2="13.45623779296875" gradientUnits="userSpaceOnUse"><stop offset="0" stop-color="#E7A9E3"  /><stop offset="1" stop-color="#FFFFFF"  /></linearGradient><linearGradient id="linear_fill_0_711" x1="24.90673828125" y1="8.75" x2="22.93115234375" y2="13.2032470703125" gradientUnits="userSpaceOnUse"><stop offset="0" stop-color="#E7A9E3"  /><stop offset="1" stop-color="#FFFFFF"  /></linearGradient></defs></svg>